<svg xmlns="http://www.w3.org/2000/svg" width="170" height="170" fill="none"><path fill="#FDEDEE" d="M85 170c46.944 0 85-38.056 85-85S131.944 0 85 0 0 38.056 0 85s38.056 85 85 85Z"/><path stroke="#E84855" stroke-linecap="round" stroke-linejoin="round" stroke-width="6" d="M85 132.813a47.808 47.808 0 0 1 42.84-26.563"/><mask id="a" width="18" height="18" x="44.469" y="65.719" fill="#000" maskUnits="userSpaceOnUse"><path fill="#fff" d="M44.469 65.719h18v18h-18z"/><path d="M53.125 71.719a2.656 2.656 0 1 1 0 5.311 2.656 2.656 0 0 1 0-5.311Z"/></mask><path fill="#E84855" d="M53.125 77.719a3.344 3.344 0 0 1-1.858-.564l6.667-9.977a8.656 8.656 0 0 0-4.809-1.46v12Zm-1.858-.564a3.343 3.343 0 0 1-1.231-1.5l11.086-4.593a8.656 8.656 0 0 0-3.188-3.884l-6.667 9.977Zm-1.231-1.5a3.344 3.344 0 0 1-.19-1.932l11.769 2.34a8.656 8.656 0 0 0-.493-5l-11.086 4.592Zm-.19-1.932a3.344 3.344 0 0 1 .915-1.712l8.485 8.485a8.656 8.656 0 0 0 2.369-4.432l-11.77-2.341Zm.915-1.712a3.344 3.344 0 0 1 1.712-.915l2.34 11.769a8.656 8.656 0 0 0 4.433-2.37l-8.485-8.484Zm1.712-.915a3.344 3.344 0 0 1 1.932.19l-4.593 11.086a8.656 8.656 0 0 0 5.002.493l-2.341-11.77Zm1.932.19a3.343 3.343 0 0 1 1.5 1.231l-9.977 6.667a8.656 8.656 0 0 0 3.884 3.188l4.593-11.086Zm1.5 1.231c.368.55.564 1.197.564 1.858h-12c0 1.712.507 3.386 1.459 4.81l9.977-6.668Zm.564 1.858a3.34 3.34 0 0 1-.98 2.364l-8.485-8.485a8.656 8.656 0 0 0-2.535 6.121h12Zm-.98 2.364a3.344 3.344 0 0 1-2.364.98v-12a8.656 8.656 0 0 0-6.12 2.535l8.484 8.485Z" mask="url(#a)"/><mask id="b" width="18" height="18" x="102.487" y="55.513" fill="#000" maskUnits="userSpaceOnUse"><path fill="#fff" d="M102.487 55.513h18v18h-18z"/><path d="M111.144 61.513a2.656 2.656 0 1 1-.001 5.312 2.656 2.656 0 0 1 .001-5.312Z"/></mask><path fill="#E84855" d="M111.144 67.513a3.344 3.344 0 0 1-1.858-.563l6.667-9.978a8.657 8.657 0 0 0-4.809-1.459v12Zm-1.858-.563a3.344 3.344 0 0 1-1.232-1.501l11.087-4.592a8.658 8.658 0 0 0-3.188-3.885l-6.667 9.978Zm-1.232-1.501a3.344 3.344 0 0 1-.19-1.932l11.769 2.341a8.658 8.658 0 0 0-.492-5.001l-11.087 4.592Zm-.19-1.932a3.349 3.349 0 0 1 .915-1.712l8.485 8.485a8.653 8.653 0 0 0 2.369-4.432l-11.769-2.34Zm.915-1.712a3.348 3.348 0 0 1 1.712-.915l2.341 11.77a8.654 8.654 0 0 0 4.432-2.37l-8.485-8.485Zm1.712-.915a3.344 3.344 0 0 1 1.932.19l-4.592 11.087a8.656 8.656 0 0 0 5.001.492l-2.341-11.77Zm1.932.19a3.348 3.348 0 0 1 1.501 1.232l-9.978 6.667a8.655 8.655 0 0 0 3.885 3.188l4.592-11.087Zm1.501 1.232c.367.55.563 1.196.563 1.857h-12a8.66 8.66 0 0 0 1.459 4.81l9.978-6.667Zm.563 1.857c0 .887-.352 1.738-.979 2.365l-8.485-8.486a8.654 8.654 0 0 0-2.536 6.121h12Zm-.979 2.365a3.344 3.344 0 0 1-2.364.98v-12a8.656 8.656 0 0 0-6.121 2.534l8.485 8.486Z" mask="url(#b)"/></svg>