<?xml version="1.0" encoding="iso-8859-1"?>
<!-- Uploaded to: SVG Repo, www.svgrepo.com, Generator: SVG Repo Mixer Tools -->
<svg height="800px" width="800px" version="1.1" id="Layer_1" xmlns="http://www.w3.org/2000/svg" xmlns:xlink="http://www.w3.org/1999/xlink" 
	 viewBox="0 0 511.991 511.991" xml:space="preserve">
<path style="fill:#A0D468;" d="M348.244,358.008c-0.812,0.297-158.044,4.062-158.044,4.062l-17.75,11.827l21.328,32
	c1.984,2.969,5.312,4.75,8.875,4.75c65.187,0,149.528-31.344,153.075-32.672L348.244,358.008z"/>
<g>
	<path style="fill:#E6E9ED;" d="M95.999,229.33H10.657c-5.891,0-10.656,4.773-10.656,10.664v42.655
		c0,5.891,4.766,10.672,10.656,10.672h85.342c5.891,0,10.656-4.781,10.656-10.672v-42.655
		C106.655,234.103,101.89,229.33,95.999,229.33z"/>
	<path style="fill:#E6E9ED;" d="M372.119,357.289c0.312,0.016,0.531,0.031,0.609,0.031l0.75-21.328
		c-0.281,0-27.156-0.953-55.969-4.031c-52.795-5.609-63.436-13.109-65.029-14.547c-7.453-6.75-15.093-22.64-9.109-59.982
		c3.891-24.266,11.844-45.445,11.922-45.656c1.25-3.273,0.797-6.953-1.188-9.835c-2-2.891-5.281-4.609-8.781-4.609H117.327
		c-4.171,0-7.953,2.43-9.687,6.211l-22.046,47.999l19.39,8.906l44.343,96.873v21.327h223.777v-21.327h-0.984L372.119,357.289
		L372.119,357.289z"/>
</g>
<path style="fill:#434A54;" d="M95.999,303.993C60.703,303.993,32,332.695,32,367.991c0,35.281,28.703,63.999,63.999,63.999
	c35.281,0,63.999-28.718,63.999-63.999C159.998,332.695,131.28,303.993,95.999,303.993z"/>
<path style="fill:#F5F7FA;" d="M103.53,375.538c-4.156,4.156-10.922,4.156-15.078,0c-4.172-4.172-4.172-10.921,0-15.093
	c4.156-4.172,10.921-4.172,15.078,0C107.702,364.617,107.702,371.366,103.53,375.538z"/>
<path style="fill:#434A54;" d="M447.992,303.993c-35.296,0-63.998,28.702-63.998,63.998c0,35.281,28.702,63.999,63.998,63.999
	c35.281,0,63.999-28.718,63.999-63.999C511.991,332.695,483.273,303.993,447.992,303.993z"/>
<path style="fill:#E6E9ED;" d="M351.994,137.332c0.266,1.055,26.984,106.818,36.484,219.988l39.248-66.546l-33.077-157.442
	L351.994,137.332z"/>
<path style="fill:#F5F7FA;" d="M447.976,378.663c-4.969,0-9.406-3.484-10.438-8.547l-10.672-52.265
	c-1.172-5.766,2.547-11.405,8.312-12.577c5.781-1.188,11.406,2.546,12.594,8.312l10.672,52.265
	c1.172,5.781-2.562,11.406-8.328,12.594C449.398,378.585,448.68,378.663,447.976,378.663z"/>
<path style="fill:#A0D468;" d="M438.226,155.137L426.492,88.81c-0.953-5.391-5.844-9.18-11.28-8.781
	c-0.719,0.047-17.859,1.367-35.202,8.32c-31.969,12.828-38.688,33.718-38.688,48.983c0,13.227,5.719,23.492,16.562,29.687
	c7.625,4.359,17.781,6.578,30.219,6.578h0.016c20.796,0,41.732-6.109,42.623-6.367C435.945,165.691,439.164,160.488,438.226,155.137
	z"/>
<path style="fill:#CCD1D9;" d="M159.998,314.648c-17.656,0-32,14.359-32,32c0,17.656,14.343,31.999,32,31.999
	c17.64,0,31.999-14.343,31.999-31.999C191.997,329.008,177.638,314.648,159.998,314.648z"/>
<path style="fill:#434A54;" d="M266.652,218.659H95.999c-5.891,0-10.671-4.773-10.671-10.664v-10.664
	c0-5.891,4.781-10.672,10.671-10.672h170.653c5.891,0,10.672,4.781,10.672,10.672v10.664
	C277.324,213.885,272.543,218.659,266.652,218.659z"/>
<path style="fill:#E6E9ED;" d="M330.666,165.331c-3.922,0-7.688-2.172-9.562-5.914c-2.625-5.273-0.469-11.679,4.797-14.304
	l42.859-21.336c5.281-2.617,11.672-0.477,14.297,4.797s0.484,11.68-4.797,14.305l-42.844,21.335
	C333.885,164.972,332.26,165.331,330.666,165.331z"/>
<path style="fill:#ED5564;" d="M10.657,293.321H32V229.33H10.657c-5.891,0-10.656,4.773-10.656,10.664v42.655
	C0.001,288.54,4.767,293.321,10.657,293.321z"/>
<g>
	<path style="fill:#A0D468;" d="M510.944,320.711c-0.844-1.75-21.108-42.952-65.905-42.952c-8.562,0-17.469,1.562-26.516,4.656
		c-32.576,11.125-46.061,34.202-51.639,51.608c-5.922,18.484-4.234,34.468-4.172,35.14c0.438,3.859,2.938,7.188,6.531,8.672
		c1.312,0.547,2.703,0.812,4.078,0.812c2.375,0,4.734-0.797,6.656-2.328c0.266-0.219,26.812-21.233,64.232-35.655
		c12.859-4.969,27.297-6,37.141-6c10.609,0,18.218,1.188,18.28,1.188c3.906,0.625,7.859-0.969,10.234-4.141
		C512.241,328.523,512.647,324.289,510.944,320.711z"/>
	<path style="fill:#A0D468;" d="M213.247,334.664c-0.125-0.938-3.031-23.406-14.391-46.108
		c-15.875-31.765-40.39-48.554-70.858-48.554c-28.39,0-52.78,4.844-72.483,14.398c-16.297,7.898-29.406,18.952-38.984,32.89
		C0.188,311.07,0,334.977,0,335.992c0,5.891,4.766,10.656,10.656,10.656h191.996c3.062,0,5.984-1.312,8-3.594
		C212.684,340.758,213.622,337.695,213.247,334.664z"/>
</g>
</svg>