<?xml version="1.0" encoding="iso-8859-1"?>
<!-- Uploaded to: SVG Repo, www.svgrepo.com, Generator: SVG Repo Mixer Tools -->
<svg version="1.1" id="Layer_1" xmlns="http://www.w3.org/2000/svg" xmlns:xlink="http://www.w3.org/1999/xlink" 
	 viewBox="0 0 511.991 511.991" xml:space="preserve">
<path style="fill:#ED5564;" d="M479.992,405.321H32c-17.641,0-32-14.344-32-32V85.327c0-17.641,14.359-31.999,32-31.999h447.992
	c17.64,0,31.999,14.358,31.999,31.999V373.32C511.991,390.977,497.632,405.321,479.992,405.321z"/>
<path style="fill:#E6E9ED;" d="M0.001,373.321c0,17.656,14.359,32,32,32h47.921v-42.655H0.001V373.321z"/>
<path style="fill:#4FC2E9;" d="M511.991,223.996H53.328c-5.891,0-10.656,4.766-10.656,10.656v64.015
	c0,5.891,4.766,10.655,10.656,10.655h458.663V223.996z"/>
<g>
	<path style="fill:#434A54;" d="M95.999,351.993c-29.406,0-53.327,23.921-53.327,53.327c0,29.421,23.921,53.343,53.327,53.343
		s53.327-23.922,53.327-53.343C149.326,375.915,125.405,351.993,95.999,351.993z"/>
	<path style="fill:#434A54;" d="M394.665,351.993c-29.405,0-53.343,23.921-53.343,53.327c0,29.421,23.938,53.343,53.343,53.343
		s53.327-23.922,53.327-53.343C447.992,375.915,424.07,351.993,394.665,351.993z"/>
</g>
<path style="fill:#F5F7FA;" d="M103.546,397.79c4.156,4.156,4.156,10.906,0,15.078c-4.172,4.171-10.922,4.171-15.093,0
	c-4.156-4.172-4.156-10.922,0-15.078C92.624,393.618,99.374,393.618,103.546,397.79z"/>
<rect x="181.326" y="309.366" style="fill:#E6E9ED;" width="128" height="95.95"/>
<path style="fill:#F5F7FA;" d="M402.196,397.79c4.172,4.156,4.172,10.906,0,15.078c-4.156,4.171-10.905,4.171-15.077,0
	c-4.172-4.172-4.172-10.922,0-15.078C391.291,393.618,398.04,393.618,402.196,397.79z"/>
<rect x="239.996" y="223.996" style="fill:#E6E9ED;" width="10.671" height="181.32"/>
<g>
	<polygon style="fill:#3BAFDA;" points="95.311,309.368 94.968,223.996 116.311,223.934 116.639,309.291 	"/>
	<polygon style="fill:#3BAFDA;" points="362.494,309.368 362.166,223.996 383.494,223.934 383.822,309.291 	"/>
</g>
<path style="fill:#4FC2E9;" d="M511.991,95.968H53.328c-5.891,0-10.656,4.766-10.656,10.656v63.999
	c0,5.891,4.766,10.672,10.656,10.672h458.663V95.968z"/>
<g>
	<polygon style="fill:#3BAFDA;" points="95.311,181.325 94.968,95.968 116.311,95.905 116.639,181.263 	"/>
	<polygon style="fill:#3BAFDA;" points="170.826,181.325 170.497,95.968 191.825,95.905 192.169,181.263 	"/>
	<polygon style="fill:#3BAFDA;" points="246.527,181.325 246.184,95.968 267.527,95.905 267.855,181.263 	"/>
	<polygon style="fill:#3BAFDA;" points="322.213,181.325 321.869,95.968 343.213,95.905 343.541,181.263 	"/>
	<polygon style="fill:#3BAFDA;" points="397.899,181.325 397.571,95.968 418.898,95.905 419.226,181.263 	"/>
</g>
<g>
	<polygon style="fill:#E6E9ED;" points="181.326,223.996 309.323,223.996 309.323,405.321 319.994,405.321 319.994,223.996 
		319.994,213.325 309.323,213.325 181.326,213.325 170.669,213.325 170.669,223.996 170.669,405.321 181.326,405.321 	"/>
	<path style="fill:#E6E9ED;" d="M511.991,330.666h-31.999c-5.891,0-10.672,4.766-10.672,10.656s4.781,10.672,10.672,10.672h31.999
		V330.666z"/>
</g>
</svg>