<?xml version="1.0" encoding="iso-8859-1"?>
<!-- Uploaded to: SVG Repo, www.svgrepo.com, Generator: SVG Repo Mixer Tools -->
<svg height="800px" width="800px" version="1.1" id="Layer_1" xmlns="http://www.w3.org/2000/svg" xmlns:xlink="http://www.w3.org/1999/xlink" 
	 viewBox="0 0 511.99 511.99" xml:space="preserve">
<path style="fill:#E6E9ED;" d="M437.339,106.669v223.996v42.655c0,17.656-14.375,32-31.999,32c-17.655,0-31.999-14.344-31.999-32
	v-42.655c-12.969,9.719-21.344,25.219-21.344,42.655c0,29.453,23.875,53.343,53.343,53.343c29.437,0,53.312-23.89,53.312-53.343
	V106.669H437.339z"/>
<path style="fill:#ED5564;" d="M373.341,490.662c0,11.781-9.562,21.328-21.344,21.328H96.01c-11.796,0-21.343-9.547-21.343-21.328
	V21.327C74.667,9.546,84.214,0,96.01,0h255.987c11.781,0,21.344,9.546,21.344,21.327V490.662z"/>
<path style="fill:#E6E9ED;" d="M351.997,0H96.01C84.214,0,74.667,9.546,74.667,21.327v191.997h298.674V21.327
	C373.341,9.546,363.778,0,351.997,0z"/>
<g>
	<path style="fill:#434A54;" d="M373.341,447.991H74.666c-11.781,0-21.328,9.547-21.328,21.327v42.672h341.313v-42.672
		C394.652,457.538,385.122,447.991,373.341,447.991z"/>
	<path style="fill:#434A54;" d="M447.995,149.325c0,5.891-4.781,10.671-10.656,10.671c-5.906,0-10.688-4.781-10.688-10.671
		s4.781-10.656,10.688-10.656C443.214,138.669,447.995,143.434,447.995,149.325z"/>
</g>
<path style="fill:#656D78;" d="M458.651,106.669c0-23.562-19.094-42.671-42.655-42.671h-10.719c-5.875,0-10.656,4.781-10.656,10.671
	s4.781,10.656,10.656,10.656h10.625v0.016c0.031-0.016,0.062-0.016,0.094-0.016c11.749,0,21.343,9.578,21.343,21.343v0.094H394.59
	l0.062,85.186l42.687,21.375h21.25V109.06C458.62,108.263,458.651,107.466,458.651,106.669z M437.245,189.433l-21.249-10.656
	l-0.062-50.687h21.312v61.343H437.245z"/>
<path style="fill:#FFCE54;" d="M270.522,307.852c-19.484-24.405-12.109-57.373-12.031-57.67l3.875-16.187l-16.312,3.234
	c-21.625,4.266-38.905,13.938-51.358,28.734c-8.75,10.421-15.14,23.437-19.046,38.843l-9.375-12.281l-6.687,18.233
	c-10.531,28.703-8.203,56.14,6.531,77.249c13.859,19.828,38.312,32.64,62.312,32.64h0.016c0.031,0,0.062,0.016,0.094,0.016h10.578
	l0.016-0.953c19.953-3.5,37.898-16.546,46.585-34.624C292.248,371.508,298.967,343.431,270.522,307.852z"/>
<g>
	<path style="fill:#434A54;" d="M139.009,74.67h169.989c5.906,0,10.655-4.781,10.655-10.671c0-5.891-4.749-10.671-10.655-10.671
		H139.009c-5.906,0-10.672,4.781-10.672,10.671C128.337,69.889,133.103,74.67,139.009,74.67z"/>
	<path style="fill:#434A54;" d="M308.998,95.998H139.009c-5.906,0-10.672,4.781-10.672,10.671c0,5.891,4.766,10.656,10.672,10.656
		h169.989c5.906,0,10.655-4.766,10.655-10.656S314.904,95.998,308.998,95.998z"/>
	<path style="fill:#434A54;" d="M224.007,138.669h-84.998c-5.906,0-10.672,4.766-10.672,10.656s4.766,10.671,10.672,10.671h84.998
		c5.891,0,10.656-4.781,10.656-10.671S229.898,138.669,224.007,138.669z"/>
</g>
</svg>