<?xml version="1.0" encoding="iso-8859-1"?>
<!-- Uploaded to: SVG Repo, www.svgrepo.com, Generator: SVG Repo Mixer Tools -->
<svg version="1.1" id="Layer_1" xmlns="http://www.w3.org/2000/svg" xmlns:xlink="http://www.w3.org/1999/xlink" 
	 viewBox="0 0 511.99 511.99" xml:space="preserve">
<path style="fill:#656D78;" d="M469.319,213.339c0-56.983-22.188-110.56-62.483-150.856C366.556,22.202,312.978,0,255.995,0
	S145.434,22.202,105.154,62.483c-40.296,40.296-62.483,93.873-62.483,150.856c0,2.875,0.047,5.797,0.172,8.718
	c-0.109,0.625-0.172,1.281-0.172,1.938v277.339c0,5.891,4.766,10.656,10.656,10.656h405.336c5.891,0,10.656-4.766,10.656-10.656
	V223.995c0-0.656-0.062-1.312-0.172-1.938C469.257,219.136,469.319,216.214,469.319,213.339z"/>
<polygon style="fill:#F5F7FA;" points="340.524,411.945 320.79,420.054 332.259,447.991 179.731,447.991 191.199,420.054 
	171.465,411.945 130.419,511.99 153.481,511.99 170.981,469.334 341.009,469.334 358.509,511.99 381.571,511.99 "/>
<path style="fill:#ED5564;" d="M341.321,127.997H170.668c-17.656,0-31.999,14.359-31.999,32v234.667
	c0,17.641,14.343,31.999,31.999,31.999h170.653c17.656,0,32-14.358,32-31.999V159.996
	C373.321,142.356,358.977,127.997,341.321,127.997z"/>
<rect x="138.665" y="223.995" style="fill:#4FC2E9;" width="234.65" height="85.34"/>
<polygon style="opacity:0.2;fill:#F5F7FA;enable-background:new    ;" points="224.324,309.337 266.339,309.337 287.667,223.995 
	245.651,223.995 "/>
<g>
	<path style="fill:#FFCE54;" d="M202.668,362.665c0,5.89-4.781,10.671-10.672,10.671c-5.89,0-10.671-4.781-10.671-10.671
		c0-5.891,4.781-10.672,10.671-10.672C197.887,351.993,202.668,356.774,202.668,362.665z"/>
	<path style="fill:#FFCE54;" d="M330.665,362.665c0,5.89-4.781,10.671-10.672,10.671c-5.89,0-10.671-4.781-10.671-10.671
		c0-5.891,4.781-10.672,10.671-10.672C325.884,351.993,330.665,356.774,330.665,362.665z"/>
</g>
<path style="fill:#F5F7FA;" d="M309.322,192.887H202.668c-5.891,0-10.672-4.766-10.672-10.656s4.781-10.672,10.672-10.672h106.654
	c5.891,0,10.671,4.781,10.671,10.672S315.213,192.887,309.322,192.887z"/>
</svg>