<?xml version="1.0" encoding="iso-8859-1"?>
<!-- Uploaded to: SVG Repo, www.svgrepo.com, Generator: SVG Repo Mixer Tools -->
<svg height="800px" width="800px" version="1.1" id="Layer_1" xmlns="http://www.w3.org/2000/svg" xmlns:xlink="http://www.w3.org/1999/xlink" 
	 viewBox="0 0 511.99 511.99" xml:space="preserve">
<path style="fill:#FFCE54;" d="M382.821,261.789c-11.406-22.218-38.266-38.937-79.827-49.655
	c-20.874-5.391-40.046-7.843-49.968-8.843L212.683,92.355c-1.531-4.219-5.531-7.016-10.016-7.016H74.67
	c-5.156,0-9.578,3.688-10.5,8.75L21.499,328.748c-1.031,5.719,2.703,11.25,8.406,12.375l106.67,21.344
	c0.688,0.125,1.391,0.188,2.094,0.188h234.652c5.891,0,10.672-4.75,10.672-10.656v-85.334
	C383.993,264.976,383.587,263.305,382.821,261.789z"/>
<path style="fill:#ED5564;" d="M470.866,303.625c-8.359-6.875-16.984-14-25.938-23.094c-15.422-15.695-23.328-36.351-23.5-61.397
	c-0.141-19.437,4.641-34.312,4.688-34.437c1.078-3.25,0.531-6.828-1.484-9.609c-2-2.781-5.219-4.422-8.64-4.422h-42.671
	c-5.891,0-10.656,4.781-10.656,10.672v192.004c0,5.875,4.766,10.656,10.656,10.656h127.997c5.891,0,10.672-4.781,10.672-10.656
	C511.99,337.56,492.929,321.842,470.866,303.625z"/>
<path style="fill:#DA4453;" d="M362.665,373.342c0,5.875,4.766,10.656,10.656,10.656h127.997c5.891,0,10.672-4.781,10.672-10.656
	c0-8.062-0.969-15.062-2.719-21.344H362.665V373.342z"/>
<path style="fill:#4FC2E9;" d="M231.73,277.344l-42.937-131.318c-1.422-4.391-5.516-7.359-10.125-7.359h-73.342
	c-5.203,0-9.656,3.766-10.516,8.906L72.983,277.344H231.73z"/>
<path style="fill:#434A54;" d="M95.998,234.664C43.061,234.664,0,277.717,0,330.654c0,52.938,43.062,95.998,95.998,95.998
	s95.998-43.061,95.998-95.998C191.996,277.719,148.934,234.664,95.998,234.664z"/>
<path style="fill:#CCD1D9;" d="M95.998,298.656c-17.64,0-32,14.373-32,31.998c0,17.656,14.359,32,32,32s32-14.344,32-32
	C127.997,313.029,113.639,298.656,95.998,298.656z"/>
<path style="fill:#434A54;" d="M319.993,298.656c-35.295,0-63.998,28.717-63.998,63.998c0,35.312,28.703,63.998,63.998,63.998
	c35.297,0,64-28.686,64-63.998C383.993,327.373,355.29,298.656,319.993,298.656z"/>
<path style="fill:#CCD1D9;" d="M309.322,362.654c0,5.906,4.781,10.688,10.671,10.688c5.891,0,10.672-4.781,10.672-10.688
	c0-5.875-4.781-10.656-10.672-10.656C314.103,351.998,309.322,356.779,309.322,362.654z"/>
<g>
	<path style="fill:#656D78;" d="M95.998,234.664c-3.609,0-7.156,0.203-10.671,0.594v10.078c0,5.891,4.781,10.656,10.671,10.656
		s10.672-4.766,10.672-10.656v-10.078C103.154,234.868,99.607,234.664,95.998,234.664z"/>
	<path style="fill:#656D78;" d="M95.998,405.342c-5.891,0-10.671,4.781-10.671,10.654v10.062c3.515,0.406,7.062,0.594,10.671,0.594
		s7.156-0.188,10.672-0.594v-10.062C106.67,410.123,101.889,405.342,95.998,405.342z"/>
	<path style="fill:#656D78;" d="M47.999,247.524c-3.125,1.812-6.094,3.766-8.938,5.859l5.031,8.718
		c2.953,5.094,9.469,6.844,14.578,3.906c5.093-2.953,6.843-9.468,3.906-14.578l-5.047-8.719
		C54.311,244.133,51.124,245.727,47.999,247.524z"/>
	<path style="fill:#656D78;" d="M133.326,395.342c-5.094,2.938-6.844,9.469-3.906,14.562l5.047,8.717
		c3.219-1.406,6.406-3.031,9.531-4.811c3.125-1.812,6.094-3.781,8.938-5.844l-5.031-8.719
		C144.95,394.123,138.435,392.373,133.326,395.342z"/>
	<path style="fill:#656D78;" d="M12.859,282.656c-1.796,3.125-3.406,6.312-4.812,9.531l8.718,5.062
		c5.109,2.938,11.625,1.188,14.578-3.906c2.938-5.125,1.188-11.625-3.906-14.594l-8.734-5.031
		C16.624,276.562,14.671,279.531,12.859,282.656z"/>
	<path style="fill:#656D78;" d="M160.653,367.998c-2.938,5.094-1.188,11.625,3.906,14.562l8.734,5.031
		c2.078-2.812,4.031-5.812,5.844-8.938c1.797-3.125,3.406-6.281,4.812-9.531l-8.719-5.031
		C170.121,361.154,163.606,362.904,160.653,367.998z"/>
	<path style="fill:#656D78;" d="M0,330.654c0,3.625,0.203,7.188,0.594,10.688h10.078c5.89,0,10.656-4.781,10.656-10.688
		c0-5.875-4.766-10.656-10.656-10.656H0.594C0.203,323.498,0,327.06,0,330.654z"/>
	<path style="fill:#656D78;" d="M170.668,330.654c0,5.906,4.766,10.688,10.656,10.688h10.078c0.391-3.5,0.594-7.062,0.594-10.688
		c0-3.594-0.203-7.156-0.594-10.656h-10.077C175.434,319.998,170.668,324.779,170.668,330.654z"/>
	<path style="fill:#656D78;" d="M12.859,378.654c1.812,3.125,3.766,6.125,5.844,8.938l8.734-5.031
		c5.094-2.938,6.844-9.469,3.906-14.562c-2.953-5.094-9.469-6.844-14.578-3.906l-8.718,5.031
		C9.453,372.373,11.062,375.529,12.859,378.654z"/>
	<path style="fill:#656D78;" d="M160.669,293.344c2.938,5.094,9.453,6.844,14.562,3.906l8.719-5.031
		c-1.406-3.25-3.016-6.438-4.812-9.562c-1.812-3.125-3.766-6.094-5.844-8.938l-8.734,5.031
		C159.466,281.719,157.716,288.219,160.669,293.344z"/>
	<path style="fill:#656D78;" d="M47.999,413.81c3.125,1.811,6.312,3.404,9.531,4.811l5.047-8.717
		c2.937-5.094,1.187-11.625-3.906-14.562c-5.109-2.969-11.625-1.219-14.578,3.875l-5.031,8.75
		C41.905,410.06,44.874,411.998,47.999,413.81z"/>
	<path style="fill:#656D78;" d="M133.326,266.008c5.109,2.938,11.625,1.188,14.578-3.906l5.031-8.718
		c-2.844-2.094-5.812-4.047-8.938-5.859c-3.125-1.797-6.312-3.406-9.531-4.812l-5.047,8.719
		C126.482,256.539,128.232,263.055,133.326,266.008z"/>
	<path style="fill:#656D78;" d="M309.322,299.562v9.779c0,5.875,4.781,10.656,10.671,10.656c5.891,0,10.672-4.781,10.672-10.656
		v-9.779c-3.469-0.594-7.031-0.906-10.672-0.906S312.791,298.969,309.322,299.562z"/>
	<path style="fill:#656D78;" d="M319.993,405.342c-5.89,0-10.671,4.75-10.671,10.654v9.781c3.469,0.562,7.03,0.875,10.671,0.875
		s7.203-0.312,10.672-0.875v-9.781C330.665,410.092,325.884,405.342,319.993,405.342z"/>
	<path style="fill:#656D78;" d="M282.917,310.498c-2.875,2.031-5.609,4.344-8.172,6.906c-2.578,2.562-4.875,5.312-6.922,8.188
		l6.922,6.906c4.156,4.156,10.922,4.156,15.078,0c4.171-4.156,4.171-10.906,0-15.094L282.917,310.498z"/>
	<path style="fill:#656D78;" d="M350.165,392.842c-4.172,4.156-4.172,10.906,0,15.062l6.906,6.938
		c2.875-2.062,5.609-4.344,8.172-6.906c2.578-2.594,4.875-5.312,6.922-8.188l-6.922-6.906
		C361.087,388.654,354.321,388.654,350.165,392.842z"/>
	<path style="fill:#656D78;" d="M277.323,362.654c0-5.875-4.766-10.656-10.656-10.656h-9.781c-0.578,3.469-0.891,7.031-0.891,10.656
		c0,3.656,0.312,7.219,0.891,10.688h9.781C272.557,373.342,277.323,368.56,277.323,362.654z"/>
	<path style="fill:#656D78;" d="M383.102,351.998h-9.781c-5.891,0-10.656,4.781-10.656,10.656c0,5.906,4.766,10.688,10.656,10.688
		h9.781c0.578-3.469,0.891-7.031,0.891-10.688C383.993,359.029,383.681,355.467,383.102,351.998z"/>
	<path style="fill:#656D78;" d="M274.745,392.842l-6.922,6.906c2.047,2.875,4.344,5.594,6.922,8.188
		c2.562,2.562,5.297,4.844,8.172,6.906l6.906-6.938c4.171-4.156,4.171-10.906,0-15.062
		C285.667,388.654,278.901,388.654,274.745,392.842z"/>
	<path style="fill:#656D78;" d="M365.243,332.498l6.922-6.906c-2.047-2.875-4.344-5.625-6.922-8.188
		c-2.562-2.562-5.297-4.875-8.172-6.906l-6.906,6.906c-4.172,4.188-4.172,10.938,0,15.094
		C354.321,336.654,361.087,336.654,365.243,332.498z"/>
</g>
<path style="fill:#F6BB42;" d="M213.324,106.667H63.998c-5.89,0-10.671-4.765-10.671-10.671c0-5.875,4.781-10.656,10.671-10.656
	h149.326c5.89-0.001,10.671,4.781,10.671,10.656C223.995,101.902,219.214,106.667,213.324,106.667z"/>
</svg>