<?xml version="1.0" encoding="iso-8859-1"?>
<!-- Uploaded to: SVG Repo, www.svgrepo.com, Generator: SVG Repo Mixer Tools -->
<svg height="800px" width="800px" version="1.1" id="Layer_1" xmlns="http://www.w3.org/2000/svg" xmlns:xlink="http://www.w3.org/1999/xlink" 
	 viewBox="0 0 511.999 511.999" xml:space="preserve">
<path style="fill:#F9EC86;" d="M434.087,322.782c-36.883,0-66.783-29.9-66.783-66.783s29.9-66.783,66.783-66.783
	s66.783,29.9,66.783,66.783S470.97,322.782,434.087,322.782z"/>
<path style="fill:#AFD5FF;" d="M264.12,369.158H142.788l-112.385-0.06c-12.6-0.698-23.304-7.483-27.935-16.854
	C0.878,349.034,0,345.523,0,341.848V113.573C0,98.551,14.647,86.26,32.551,86.26h192.224c56.941,0,74.701,18.82,142.097,75.662
	c9.83,8.292,18.47,17.377,27.204,25.269c47.618,43.024,54.614,44.602,55.53,85.218c0.201,9.193,0.081,29.456,0.026,42.493
	c-0.03,7.411-0.081,15.908-0.081,26.945c0,14.367-13.401,26.232-30.228,27.242L264.12,369.158z"/>
<path style="fill:#95B8C2;" d="M0,166.956v-53.384C0,98.551,14.647,86.26,32.551,86.26h192.224
	c56.941,0,74.701,18.82,142.097,75.662c1.956,1.65,3.854,3.336,5.726,5.033H0z"/>
<path style="fill:#DC2C13;" d="M449.605,272.41c0.201,9.193,0.081,29.456,0.026,42.493c-0.03,7.411-0.081,15.908-0.081,26.945
	c0,14.367-13.401,26.232-30.228,27.242l-155.201,0.069H142.788l-112.385-0.06c-12.6-0.698-23.304-7.483-27.935-16.854
	C0.878,349.034,0,345.523,0,341.848V113.573C0,98.551,14.647,86.26,32.551,86.26h60.327l55.82,141.449
	c5.685,13.884,14.649,27.31,32.549,27.31h267.229C449.124,259.988,449.452,265.651,449.605,272.41z"/>
<path style="fill:#B21100;" d="M449.557,333.913c-0.006,2.498-0.009,5.133-0.009,7.935c0,14.367-13.401,26.232-30.228,27.242
	l-155.201,0.069H142.788l-112.385-0.06c-12.6-0.698-23.304-7.483-27.935-16.854C0.878,349.034,0,345.523,0,341.848v-7.935H449.557z"
	/>
<path style="fill:#234556;" d="M142.788,369.158c0,31.249-25.159,56.58-56.194,56.58c-31.036,0-56.193-25.332-56.193-56.58
	c0-31.248,25.157-56.578,56.193-56.578C117.629,312.58,142.788,337.911,142.788,369.158z M363.127,312.58
	c-31.036,0-56.193,25.332-56.193,56.578c0,31.249,25.157,56.58,56.193,56.58c31.034,0,56.193-25.332,56.193-56.58
	C419.32,337.911,394.161,312.58,363.127,312.58z"/>
<path style="fill:#95B8C2;" d="M96.63,369.158c0,5.533-4.484,10.017-10.017,10.017c-5.533,0-10.036-4.484-10.036-10.017
	c0-5.533,4.467-10.017,9.998-10.017h0.038C92.146,359.141,96.63,363.625,96.63,369.158z M363.146,359.141h-0.037
	c-5.533,0-9.998,4.484-9.998,10.017c0,5.533,4.503,10.017,10.036,10.017c5.533,0,10.017-4.484,10.017-10.017
	C373.165,363.625,368.678,359.141,363.146,359.141z"/>
<path style="fill:#651100;" d="M88.982,265.7c0,5.533-4.484,10.017-10.017,10.017H56.278c-5.533,0-10.017-4.484-10.017-10.017
	c0-5.533,4.484-10.017,10.017-10.017h22.687C84.498,255.682,88.982,260.168,88.982,265.7z M56.278,237.729h22.687
	c5.533,0,10.017-4.484,10.017-10.017s-4.484-10.017-10.017-10.017H56.278c-5.533,0-10.017,4.484-10.017,10.017
	S50.745,237.729,56.278,237.729z"/>
<path style="fill:#F2702F;" d="M480.157,235.367l19.899-3.895c5.429-1.062,10.692,2.478,11.755,7.907
	c1.063,5.429-2.478,10.692-7.907,11.755l-19.899,3.895c-0.649,0.127-1.297,0.188-1.934,0.188c-4.694,0-8.884-3.316-9.82-8.095
	C471.188,241.693,474.727,236.43,480.157,235.367z M486.767,207.806c4.733-2.864,6.249-9.022,3.385-13.756
	c-2.865-4.734-9.023-6.249-13.756-3.385l-17.376,10.514c-4.733,2.864-6.249,9.022-3.385,13.756c1.883,3.112,5.19,4.833,8.58,4.833
	c1.765,0,3.555-0.467,5.176-1.448L486.767,207.806z M500.703,280.213l-20.026-3.193c-5.462-0.869-10.598,2.852-11.47,8.314
	c-0.872,5.464,2.852,10.598,8.314,11.47l20.026,3.193c0.534,0.086,1.065,0.127,1.591,0.127c4.837,0,9.094-3.513,9.879-8.441
	C509.889,286.22,506.167,281.084,500.703,280.213z"/>
</svg>