<?xml version="1.0" encoding="iso-8859-1"?>
<!-- Uploaded to: SVG Repo, www.svgrepo.com, Generator: SVG Repo Mixer Tools -->
<svg version="1.1" id="Layer_1" xmlns="http://www.w3.org/2000/svg" xmlns:xlink="http://www.w3.org/1999/xlink" 
	 viewBox="0 0 512 512" xml:space="preserve">
<g>
	<path style="fill:#A4A9AD;" d="M156.542,370.136h-49.339c-8.231,0-14.902-6.671-14.902-14.901s6.671-14.901,14.902-14.901h49.339
		V370.136z"/>
	<path style="fill:#A4A9AD;" d="M156.542,224.993h-49.339c-8.231,0-14.902-6.671-14.902-14.901c0-8.229,6.671-14.902,14.902-14.902
		h49.339V224.993z"/>
	<path style="fill:#A4A9AD;" d="M156.542,79.849h-49.339c-8.231,0-14.902-6.671-14.902-14.902c0-8.229,6.671-14.901,14.902-14.901
		h49.339V79.849z"/>
</g>
<rect x="124.231" y="340.331" style="opacity:0.1;enable-background:new    ;" width="32.306" height="29.801"/>
<rect x="124.231" y="195.19" style="opacity:0.1;enable-background:new    ;" width="32.306" height="29.801"/>
<rect x="124.231" y="50.047" style="opacity:0.1;enable-background:new    ;" width="32.306" height="29.801"/>
<g>
	<path style="fill:#A4A9AD;" d="M355.458,370.136h49.339c8.231,0,14.902-6.671,14.902-14.901s-6.671-14.901-14.902-14.901h-49.339
		V370.136z"/>
	<path style="fill:#A4A9AD;" d="M355.458,224.993h49.339c8.231,0,14.902-6.671,14.902-14.901c0-8.229-6.671-14.902-14.902-14.902
		h-49.339V224.993z"/>
	<path style="fill:#A4A9AD;" d="M355.458,79.849h49.339c8.231,0,14.902-6.671,14.902-14.902c0-8.229-6.671-14.901-14.902-14.901
		h-49.339V79.849z"/>
</g>
<rect x="355.456" y="340.331" style="opacity:0.1;enable-background:new    ;" width="32.306" height="29.801"/>
<rect x="355.456" y="195.19" style="opacity:0.1;enable-background:new    ;" width="32.306" height="29.801"/>
<rect x="355.456" y="50.047" style="opacity:0.1;enable-background:new    ;" width="32.306" height="29.801"/>
<path style="fill:#333E48;" d="M372.808,38.115C372.808,17.152,355.657,0,334.694,0H177.312c-20.963,0-38.115,17.152-38.115,38.115
	v435.771c0,20.963,17.152,38.115,38.115,38.115h157.382c20.963,0,38.115-17.152,38.115-38.115V38.115z"/>
<g style="opacity:0.2;">
	<path d="M207.804,481.508c-20.963,0-38.115-17.152-38.115-38.115V68.606c0-20.963,17.152-38.115,38.115-38.115h96.398
		c20.963,0,38.115,17.152,38.115,38.115v374.787c0,20.963-17.152,38.115-38.115,38.115H207.804z"/>
</g>
<circle style="fill:#00AD68;" cx="255.999" cy="398.156" r="55.157"/>
<path style="opacity:0.2;enable-background:new    ;" d="M256,342.999c-25.694,0-47.283,17.568-53.413,41.346h106.825
	C303.283,360.566,281.693,342.999,256,342.999z"/>
<path style="fill:#D1D3D3;" d="M307.504,339.966c7.881,0,14.27,6.389,14.27,14.27s-6.389,14.27-14.27,14.27h-103
	c-7.882,0-14.271-6.389-14.271-14.27c0-7.882,6.389-14.27,14.271-14.27H307.504z"/>
<g>
	<circle style="opacity:0.4;fill:#FFFFFF;enable-background:new    ;" cx="289.529" cy="407.086" r="7.245"/>
	<circle style="opacity:0.3;fill:#FFFFFF;enable-background:new    ;" cx="271.506" cy="399.844" r="7.246"/>
	<circle style="opacity:0.4;fill:#FFFFFF;enable-background:new    ;" cx="276.722" cy="425.795" r="7.246"/>
</g>
<circle style="fill:#FFB819;" cx="255.999" cy="259.147" r="55.157"/>
<path style="opacity:0.2;enable-background:new    ;" d="M256,203.993c-25.694,0-47.283,17.568-53.413,41.346h106.825
	C303.283,221.561,281.693,203.993,256,203.993z"/>
<path style="fill:#D1D3D3;" d="M307.504,200.961c7.881,0,14.27,6.389,14.27,14.271c0,7.882-6.389,14.27-14.27,14.27h-103
	c-7.882,0-14.271-6.389-14.271-14.27s6.389-14.271,14.271-14.271H307.504z"/>
<g>
	<circle style="opacity:0.4;fill:#FFFFFF;enable-background:new    ;" cx="289.529" cy="268.087" r="7.245"/>
	<circle style="opacity:0.3;fill:#FFFFFF;enable-background:new    ;" cx="271.506" cy="260.835" r="7.246"/>
	<circle style="opacity:0.4;fill:#FFFFFF;enable-background:new    ;" cx="276.722" cy="286.785" r="7.246"/>
</g>
<circle style="fill:#FF5959;" cx="255.999" cy="120.148" r="55.157"/>
<path style="opacity:0.2;enable-background:new    ;" d="M256,64.988c-25.694,0-47.283,17.568-53.413,41.346h106.825
	C303.283,82.555,281.693,64.988,256,64.988z"/>
<path style="fill:#D1D3D3;" d="M307.504,61.955c7.881,0,14.27,6.389,14.27,14.27c0,7.882-6.389,14.271-14.27,14.271h-103
	c-7.882,0-14.271-6.389-14.271-14.271c0-7.881,6.389-14.27,14.271-14.27C204.504,61.955,307.504,61.955,307.504,61.955z"/>
<g>
	<circle style="opacity:0.4;fill:#FFFFFF;enable-background:new    ;" cx="289.529" cy="129.078" r="7.245"/>
	<circle style="opacity:0.3;fill:#FFFFFF;enable-background:new    ;" cx="271.506" cy="121.836" r="7.246"/>
	<circle style="opacity:0.4;fill:#FFFFFF;enable-background:new    ;" cx="276.722" cy="147.776" r="7.246"/>
</g>
</svg>