<?xml version="1.0" encoding="iso-8859-1"?>
<!-- Uploaded to: SVG Repo, www.svgrepo.com, Generator: SVG Repo Mixer Tools -->
<svg version="1.1" id="Layer_1" xmlns="http://www.w3.org/2000/svg" xmlns:xlink="http://www.w3.org/1999/xlink" 
	 viewBox="0 0 512 512" xml:space="preserve">
<path style="fill:#D0E8FF;" d="M403.955,239.076H108.049c45.042,8.653,108.769,19.379,147.951,19.379
	C295.193,258.455,358.94,247.724,403.955,239.076z"/>
<g>
	<rect x="55.03" y="397.975" style="fill:#5CB0FF;" width="65.432" height="28.042"/>
	<path style="fill:#5CB0FF;" d="M417.059,156.063c-3.606-15.81-20.384-29.156-36.641-29.156H131.582
		c-16.257,0-33.044,13.355-36.65,29.156l-14.66,64.318h351.457L417.059,156.063z M145.767,152.211l-28.042,28.042
		c-1.826,1.826-4.217,2.739-6.609,2.739c-2.392,0-4.783-0.913-6.609-2.739c-3.651-3.651-3.651-9.567,0-13.218l28.042-28.042
		c3.651-3.651,9.567-3.651,13.218,0C149.418,142.645,149.418,148.56,145.767,152.211z"/>
	<rect x="391.538" y="397.975" style="fill:#5CB0FF;" width="65.432" height="28.042"/>
	<circle style="fill:#5CB0FF;" cx="87.748" cy="309.175" r="23.368"/>
	<circle style="fill:#5CB0FF;" cx="424.254" cy="309.175" r="23.368"/>
</g>
<path style="fill:#D0E8FF;" d="M479.15,250.386c-5.176-3.916-11.903-5.258-19.014-3.761c-5.45,1.223-136.769,30.525-204.136,30.525
	S57.314,247.848,51.755,246.598c-7.038-1.451-13.793-0.128-18.95,3.806c-5.121,3.898-8.188,9.995-8.654,17.17l-5.395,84.4
	c-0.465,7.321,1.926,14.185,6.737,19.315c4.838,5.157,11.584,7.996,18.978,7.996h1.214h84.126h252.379h84.126h1.214
	c7.412,0,14.158-2.839,18.987-7.978c4.811-5.13,7.193-11.995,6.728-19.334l-5.404-84.4
	C487.384,260.4,484.298,254.293,479.15,250.386z M87.747,351.245c-23.195,0-42.063-18.868-42.063-42.063
	s18.868-42.063,42.063-42.063s42.063,18.868,42.063,42.063S110.942,351.245,87.747,351.245z M424.252,351.245
	c-23.195,0-42.063-18.868-42.063-42.063s18.868-42.063,42.063-42.063s42.063,18.868,42.063,42.063S447.447,351.245,424.252,351.245z
	"/>
<g>
	<path style="fill:#1C71DA;" d="M511.902,350.788l-5.404-84.4c-0.803-12.679-6.509-23.651-16.048-30.899
		c-7.732-5.876-17.189-8.489-27.191-7.917l24.261-24.507c3.633-3.66,3.597-9.585-0.073-13.218c-3.66-3.624-9.576-3.606-13.218,0.073
		l-24.607,24.856l-14.343-62.876c-5.577-24.5-29.676-43.688-54.861-43.688H131.582c-25.176,0-49.284,19.188-54.87,43.688
		l-14.003,61.415l-23.177-23.405c-3.642-3.66-9.548-3.688-13.227-0.064c-3.66,3.633-3.697,9.557-0.064,13.227l24.476,24.717
		c-10.724-1.077-20.981,1.467-29.232,7.734c-9.503,7.23-15.18,18.183-15.993,30.854v0.009l-5.395,84.4
		c-0.803,12.524,3.377,24.354,11.766,33.291c6.556,6.99,15.071,11.438,24.473,13.1v38.192c0,5.167,4.181,9.347,9.347,9.347h84.126
		c5.167,0,9.347-4.181,9.347-9.347v-37.389h233.684v37.389c0,5.167,4.181,9.347,9.347,9.347h84.126c5.167,0,9.347-4.181,9.347-9.347
		v-38.19c9.415-1.657,17.933-6.098,24.491-13.084C508.534,375.161,512.706,363.331,511.902,350.788z M94.931,156.063
		c3.606-15.801,20.393-29.156,36.65-29.156h248.837c16.257,0,33.035,13.345,36.641,29.156l14.669,64.318H80.271L94.931,156.063z
		 M403.955,239.076C358.94,247.724,295.193,258.456,256,258.456c-39.183,0-102.909-10.726-147.951-19.379H403.955z M120.463,426.024
		H55.032v-28.042h65.432V426.024z M456.968,426.024h-65.432v-28.042h65.432V426.024z M486.517,371.309
		c-4.829,5.139-11.575,7.978-18.987,7.978h-1.214H382.19H129.811H45.684H44.47c-7.394,0-14.14-2.839-18.978-7.996
		c-4.811-5.13-7.202-11.995-6.737-19.315l5.395-84.4c0.465-7.175,3.533-13.273,8.654-17.17c5.157-3.934,11.913-5.258,18.95-3.806
		C57.314,247.849,188.633,277.15,256,277.15s198.686-29.302,204.136-30.525c7.111-1.497,13.839-0.155,19.014,3.761
		c5.148,3.907,8.234,10.014,8.69,17.189l5.404,84.4C493.71,359.314,491.327,366.178,486.517,371.309z"/>
	<path style="fill:#1C71DA;" d="M424.252,267.118c-23.195,0-42.063,18.868-42.063,42.063s18.868,42.063,42.063,42.063
		s42.063-18.868,42.063-42.063S447.447,267.118,424.252,267.118z M424.252,332.55c-12.889,0-23.368-10.479-23.368-23.368
		s10.479-23.368,23.368-23.368s23.368,10.479,23.368,23.368S437.142,332.55,424.252,332.55z"/>
	<path style="fill:#1C71DA;" d="M87.747,267.118c-23.195,0-42.063,18.868-42.063,42.063s18.868,42.063,42.063,42.063
		s42.063-18.868,42.063-42.063S110.942,267.118,87.747,267.118z M87.747,332.55c-12.889,0-23.368-10.479-23.368-23.368
		s10.479-23.368,23.368-23.368s23.368,10.479,23.368,23.368S100.637,332.55,87.747,332.55z"/>
</g>
<path style="fill:#FFFFFF;" d="M132.549,138.994l-28.042,28.042c-3.651,3.651-3.651,9.567,0,13.218
	c1.826,1.826,4.217,2.739,6.609,2.739c2.392,0,4.783-0.913,6.609-2.739l28.042-28.042c3.651-3.651,3.651-9.567,0-13.218
	C142.115,135.343,136.2,135.342,132.549,138.994z"/>
<g>
	<path style="fill:#FF5D5D;" d="M65.582,59.139c-2.392,0-4.786-0.913-6.609-2.739c-3.651-3.649-3.651-9.569,0-13.218l33.049-33.049
		c3.647-3.651,9.571-3.651,13.218,0c3.651,3.649,3.651,9.569,0,13.218L72.19,56.401C70.367,58.227,67.973,59.139,65.582,59.139z"/>
	<path style="fill:#FF5D5D;" d="M98.631,59.139c-2.392,0-4.786-0.913-6.609-2.739L58.973,23.352c-3.651-3.649-3.651-9.569,0-13.218
		c3.647-3.651,9.571-3.651,13.218,0l33.049,33.049c3.651,3.649,3.651,9.569,0,13.218C103.416,58.227,101.022,59.139,98.631,59.139z"
		/>
</g>
<path style="fill:#00D40B;" d="M397.413,77.834c-18.04,0-32.716-14.676-32.716-32.716s14.676-32.716,32.716-32.716
	s32.716,14.676,32.716,32.716S415.453,77.834,397.413,77.834z M397.413,31.097c-7.732,0-14.021,6.289-14.021,14.021
	s6.289,14.021,14.021,14.021s14.021-6.289,14.021-14.021S405.145,31.097,397.413,31.097z"/>
<path style="fill:#FFC504;" d="M232.23,504.604c-2.392,0-4.783-0.913-6.609-2.739l-26.438-26.438c-3.651-3.649-3.651-9.569,0-13.218
	l26.438-26.438c3.647-3.651,9.567-3.651,13.218,0l26.44,26.438c1.753,1.753,2.739,4.131,2.739,6.609s-0.986,4.856-2.739,6.609
	l-26.44,26.438C237.013,503.692,234.622,504.604,232.23,504.604z M219.012,468.819l13.218,13.22l13.22-13.22l-13.22-13.22
	L219.012,468.819z"/>
</svg>